<svg width="231" height="161" viewBox="0 0 231 161" fill="none" xmlns="http://www.w3.org/2000/svg">
<g clip-path="url(#clip0_0_1122)">
<path d="M104.745 65.2542H0V0H104.745V65.2542Z" fill="white"/>
<path d="M104.745 65.2542H0V0H104.745V65.2542ZM0.478288 64.7779H104.267V0.476309H0.478288V64.7779Z" fill="#3F3D56"/>
<path d="M91.9508 155.634H32.1649V90.3794H91.9508V155.634Z" fill="white"/>
<path d="M91.9508 155.634H32.1649V90.3794H91.9508V155.634ZM32.6432 155.157H91.4725V90.8557H32.6432V155.157Z" fill="#3F3D56"/>
<path d="M83.8199 149.471H71.3844V149.973H83.8199V149.471Z" fill="#3F3D56"/>
<path d="M83.8199 150.977H71.3844V151.479H83.8199V150.977Z" fill="#3F3D56"/>
<path d="M83.8199 152.483H71.3844V152.985H83.8199V152.483Z" fill="#3F3D56"/>
<path d="M62.0577 102.049V107.289C65.1794 107.289 68.2309 108.211 70.8265 109.938C73.4221 111.665 75.4451 114.12 76.6397 116.992C77.8343 119.864 78.1469 123.024 77.5379 126.073C76.9289 129.122 75.4257 131.923 73.2183 134.121L76.9385 137.826C79.8817 134.895 81.886 131.161 82.698 127.095C83.51 123.03 83.0932 118.816 81.5004 114.987C79.9076 111.157 77.2102 107.884 73.7495 105.581C70.2887 103.278 66.2199 102.049 62.0577 102.049Z" fill="#E6E6E6"/>
<path d="M76.9387 137.826L73.2185 134.121C70.52 136.809 66.9348 138.432 63.1269 138.689C59.3191 138.946 55.5467 137.82 52.5086 135.519L49.3242 139.692C53.3757 142.759 58.4057 144.259 63.4829 143.916C68.56 143.573 73.3403 141.409 76.9387 137.826Z" fill="#575A89"/>
<path d="M46.2742 123.007C46.2742 120.943 46.6825 118.899 47.4757 116.992C48.2689 115.085 49.4315 113.352 50.8971 111.892C52.3627 110.433 54.1027 109.275 56.0176 108.485C57.9326 107.695 59.985 107.289 62.0577 107.289V102.049C57.6523 102.049 53.3579 103.426 49.7799 105.986C46.2019 108.545 43.5207 112.158 42.1143 116.316C40.7079 120.474 40.6471 124.966 41.9406 129.16C43.2341 133.354 45.8166 137.038 49.3241 139.692L52.5085 135.52C50.5696 134.055 48.9977 132.163 47.9161 129.992C46.8344 127.821 46.2725 125.43 46.2742 123.007Z" fill="#6C63FF"/>
<path d="M46.2742 123.007C46.2742 120.943 46.6825 118.899 47.4757 116.992C48.2689 115.085 49.4315 113.352 50.8971 111.892C52.3627 110.433 54.1027 109.275 56.0176 108.485C57.9326 107.695 59.985 107.289 62.0577 107.289V102.049C57.6523 102.049 53.3579 103.426 49.7799 105.986C46.2019 108.545 43.5207 112.158 42.1143 116.316C40.7079 120.474 40.6471 124.966 41.9406 129.16C43.2341 133.354 45.8166 137.038 49.3241 139.692L52.5085 135.52C50.5696 134.055 48.9977 132.163 47.9161 129.992C46.8344 127.821 46.2725 125.43 46.2742 123.007Z" fill="url(#paint0_linear_0_1122)"/>
<path d="M180.434 115.148H120.648V49.8936H180.434V115.148Z" fill="white"/>
<path d="M140.019 89.7842H129.257V106.931H140.019V89.7842Z" fill="#575A89"/>
<path d="M155.563 78.1147H144.801V106.931H155.563V78.1147Z" fill="#E6E6E6"/>
<path d="M171.107 64.54H160.346V106.931H171.107V64.54Z" fill="#6C63FF"/>
<path d="M171.107 64.54H160.346V106.931H171.107V64.54Z" fill="url(#paint1_linear_0_1122)"/>
<path d="M174.695 107.408H126.388V57.6333H126.866V106.931H174.695V107.408Z" fill="#3F3D56"/>
<mask id="path-16-inside-1_0_1122" fill="white">
<path d="M230.725 161H179.398C179.325 161 179.255 160.971 179.204 160.92C179.152 160.869 179.123 160.799 179.123 160.726C179.123 160.654 179.152 160.584 179.204 160.533C179.255 160.482 179.325 160.453 179.398 160.453H230.725C230.798 160.453 230.868 160.482 230.919 160.533C230.971 160.584 231 160.654 231 160.726C231 160.799 230.971 160.869 230.919 160.92C230.868 160.971 230.798 161 230.725 161Z"/>
</mask>
<path d="M230.725 161H179.398C179.325 161 179.255 160.971 179.204 160.92C179.152 160.869 179.123 160.799 179.123 160.726C179.123 160.654 179.152 160.584 179.204 160.533C179.255 160.482 179.325 160.453 179.398 160.453H230.725C230.798 160.453 230.868 160.482 230.919 160.533C230.971 160.584 231 160.654 231 160.726C231 160.799 230.971 160.869 230.919 160.92C230.868 160.971 230.798 161 230.725 161Z" fill="white" stroke="black" mask="url(#path-16-inside-1_0_1122)"/>
<path d="M90.1983 51.6068H14.5465C14.4837 51.6068 14.4235 51.582 14.3791 51.5378C14.3347 51.4935 14.3098 51.4336 14.3098 51.371V15.2612C14.3098 15.1986 14.3347 15.1387 14.3791 15.0944C14.4235 15.0502 14.4837 15.0254 14.5465 15.0254C14.6093 15.0254 14.6695 15.0502 14.7139 15.0944C14.7583 15.1387 14.7833 15.1986 14.7833 15.2612V51.1353H90.1983C90.2295 51.1352 90.2603 51.1412 90.2892 51.153C90.318 51.1648 90.3442 51.1821 90.3662 51.204C90.3883 51.2259 90.4058 51.252 90.4178 51.2806C90.4297 51.3093 90.4359 51.34 90.4359 51.371C90.4359 51.4021 90.4297 51.4328 90.4178 51.4615C90.4058 51.4901 90.3883 51.5161 90.3662 51.538C90.3442 51.5599 90.318 51.5773 90.2892 51.5891C90.2603 51.6009 90.2295 51.6069 90.1983 51.6068Z" fill="#3F3D56"/>
<path d="M30.7101 49.0137H23.8293C23.643 49.0135 23.4643 48.9397 23.3326 48.8085C23.2008 48.6773 23.1267 48.4994 23.1265 48.3138V38.8678C23.1267 38.6823 23.2008 38.5044 23.3326 38.3732C23.4643 38.242 23.643 38.1682 23.8293 38.168H30.7101C30.8964 38.1682 31.075 38.242 31.2068 38.3732C31.3386 38.5044 31.4127 38.6823 31.4129 38.8678V48.3138C31.4127 48.4994 31.3386 48.6773 31.2068 48.8085C31.0751 48.9397 30.8964 49.0135 30.7101 49.0137Z" fill="url(#paint2_linear_0_1122)"/>
<path d="M43.2581 49.0137H36.3773C36.191 49.0135 36.0124 48.9397 35.8806 48.8085C35.7488 48.6773 35.6747 48.4994 35.6745 48.3138V29.9083C35.6747 29.7228 35.7488 29.5449 35.8806 29.4137C36.0124 29.2825 36.191 29.2087 36.3773 29.2085H43.2581C43.4445 29.2087 43.6231 29.2825 43.7548 29.4137C43.8866 29.5449 43.9607 29.7228 43.9609 29.9083V48.3138C43.9607 48.4994 43.8866 48.6773 43.7548 48.8085C43.6231 48.9397 43.4445 49.0135 43.2581 49.0137Z" fill="url(#paint3_linear_0_1122)"/>
<path d="M55.8062 49.0137H48.9253C48.739 49.0135 48.5604 48.9397 48.4286 48.8085C48.2969 48.6773 48.2228 48.4994 48.2225 48.3138V38.8678C48.2228 38.6823 48.2969 38.5044 48.4286 38.3732C48.5604 38.242 48.739 38.1682 48.9253 38.168H55.8062C55.9925 38.1682 56.1711 38.242 56.3029 38.3732C56.4346 38.5044 56.5088 38.6823 56.509 38.8678V48.3138C56.5088 48.4994 56.4346 48.6773 56.3029 48.8085C56.1711 48.9397 55.9925 49.0135 55.8062 49.0137Z" fill="url(#paint4_linear_0_1122)"/>
<path d="M68.3542 49.0134H61.4734C61.2913 49.0173 61.1151 48.9491 60.9834 48.8239C60.8516 48.6987 60.7751 48.5265 60.7706 48.3452V26.3397C60.7751 26.1584 60.8516 25.9862 60.9834 25.861C61.1151 25.7358 61.2913 25.6676 61.4734 25.6715H68.3542C68.5363 25.6676 68.7125 25.7358 68.8442 25.861C68.976 25.9862 69.0525 26.1584 69.057 26.3397V48.3452C69.0525 48.5265 68.976 48.6987 68.8442 48.8239C68.7125 48.9491 68.5363 49.0173 68.3542 49.0134Z" fill="url(#paint5_linear_0_1122)"/>
<path d="M80.9023 49.0134H74.0215C73.8351 49.0132 73.6565 48.9394 73.5248 48.8082C73.393 48.677 73.3189 48.4991 73.3187 48.3136V20.0055C73.3189 19.82 73.393 19.6421 73.5248 19.5109C73.6565 19.3797 73.8351 19.3059 74.0215 19.3057H80.9023C81.0886 19.3059 81.2673 19.3797 81.399 19.5109C81.5308 19.6421 81.6049 19.82 81.6051 20.0055V48.3136C81.6049 48.4991 81.5308 48.677 81.399 48.8082C81.2673 48.9394 81.0886 49.0132 80.9023 49.0134Z" fill="url(#paint6_linear_0_1122)"/>
<path d="M27.2696 35.3386C28.0541 35.3386 28.6901 34.7052 28.6901 33.9239C28.6901 33.1426 28.0541 32.5093 27.2696 32.5093C26.4851 32.5093 25.8491 33.1426 25.8491 33.9239C25.8491 34.7052 26.4851 35.3386 27.2696 35.3386Z" fill="#3F3D56"/>
<path d="M39.8177 26.1433C40.6022 26.1433 41.2382 25.5099 41.2382 24.7286C41.2382 23.9473 40.6022 23.314 39.8177 23.314C39.0331 23.314 38.3972 23.9473 38.3972 24.7286C38.3972 25.5099 39.0331 26.1433 39.8177 26.1433Z" fill="#3F3D56"/>
<path d="M52.3658 35.3386C53.1503 35.3386 53.7863 34.7052 53.7863 33.9239C53.7863 33.1426 53.1503 32.5093 52.3658 32.5093C51.5812 32.5093 50.9453 33.1426 50.9453 33.9239C50.9453 34.7052 51.5812 35.3386 52.3658 35.3386Z" fill="#3F3D56"/>
<path d="M64.9137 21.6638C65.6982 21.6638 66.3342 21.0304 66.3342 20.2491C66.3342 19.4678 65.6982 18.8345 64.9137 18.8345C64.1292 18.8345 63.4932 19.4678 63.4932 20.2491C63.4932 21.0304 64.1292 21.6638 64.9137 21.6638Z" fill="#3F3D56"/>
<path d="M77.4618 16.4763C78.2463 16.4763 78.8823 15.8429 78.8823 15.0616C78.8823 14.2803 78.2463 13.647 77.4618 13.647C76.6773 13.647 76.0413 14.2803 76.0413 15.0616C76.0413 15.8429 76.6773 16.4763 77.4618 16.4763Z" fill="#3F3D56"/>
<path d="M52.3955 34.2408L39.8177 24.8588L27.4115 34.1126L27.1277 33.7351L39.8177 24.2694L52.3357 33.6069L64.7754 20.0503L64.8254 20.0301L77.3732 14.9951L77.5503 15.4327L65.0521 20.4475L52.3955 34.2408Z" fill="#3F3D56"/>
<mask id="path-29-inside-2_0_1122" fill="white">
<path d="M176.243 89.8419C176.56 90.0333 176.915 90.153 177.283 90.1925C177.651 90.232 178.024 90.1904 178.374 90.0705C178.725 89.9507 179.044 89.7556 179.311 89.4989C179.578 89.2422 179.785 88.9303 179.918 88.585L188.914 88.8842L186.47 84.8994L178.302 85.2262C177.707 85.0415 177.064 85.0814 176.496 85.3384C175.928 85.5953 175.474 86.0515 175.221 86.6205C174.967 87.1894 174.931 87.8316 175.119 88.4253C175.308 89.0191 175.708 89.5231 176.243 89.8419V89.8419Z"/>
</mask>
<path d="M176.243 89.8419C176.56 90.0333 176.915 90.153 177.283 90.1925C177.651 90.232 178.024 90.1904 178.374 90.0705C178.725 89.9507 179.044 89.7556 179.311 89.4989C179.578 89.2422 179.785 88.9303 179.918 88.585L188.914 88.8842L186.47 84.8994L178.302 85.2262C177.707 85.0415 177.064 85.0814 176.496 85.3384C175.928 85.5953 175.474 86.0515 175.221 86.6205C174.967 87.1894 174.931 87.8316 175.119 88.4253C175.308 89.0191 175.708 89.5231 176.243 89.8419V89.8419Z" fill="white" stroke="black" mask="url(#path-29-inside-2_0_1122)"/>
<mask id="path-30-inside-3_0_1122" fill="white">
<path d="M226.967 109.31C227.211 109.032 227.391 108.704 227.495 108.348C227.598 107.993 227.622 107.62 227.566 107.254C227.509 106.888 227.373 106.54 227.166 106.232C226.96 105.925 226.689 105.667 226.372 105.475L228.242 96.6787L223.888 98.3847L222.779 106.477C222.493 107.03 222.42 107.669 222.573 108.273C222.727 108.876 223.097 109.403 223.613 109.752C224.13 110.101 224.756 110.249 225.374 110.168C225.992 110.086 226.559 109.781 226.967 109.31Z"/>
</mask>
<path d="M226.967 109.31C227.211 109.032 227.391 108.704 227.495 108.348C227.598 107.993 227.622 107.62 227.566 107.254C227.509 106.888 227.373 106.54 227.166 106.232C226.96 105.925 226.689 105.667 226.372 105.475L228.242 96.6787L223.888 98.3847L222.779 106.477C222.493 107.03 222.42 107.669 222.573 108.273C222.727 108.876 223.097 109.403 223.613 109.752C224.13 110.101 224.756 110.249 225.374 110.168C225.992 110.086 226.559 109.781 226.967 109.31Z" fill="white" stroke="black" mask="url(#path-30-inside-3_0_1122)"/>
<mask id="path-31-inside-4_0_1122" fill="white">
<path d="M205.893 155.156L202.805 155.155L201.336 143.255L205.894 143.255L205.893 155.156Z"/>
</mask>
<path d="M205.893 155.156L202.805 155.155L201.336 143.255L205.894 143.255L205.893 155.156Z" fill="white" stroke="black" mask="url(#path-31-inside-4_0_1122)"/>
<mask id="path-32-inside-5_0_1122" fill="white">
<path d="M206.681 158.147L196.723 158.146V158.02C196.723 157.512 196.823 157.008 197.018 156.539C197.213 156.069 197.499 155.642 197.858 155.283C198.218 154.923 198.646 154.638 199.116 154.443C199.586 154.249 200.09 154.148 200.599 154.148H200.599L206.681 154.149L206.681 158.147Z"/>
</mask>
<path d="M206.681 158.147L196.723 158.146V158.02C196.723 157.512 196.823 157.008 197.018 156.539C197.213 156.069 197.499 155.642 197.858 155.283C198.218 154.923 198.646 154.638 199.116 154.443C199.586 154.249 200.09 154.148 200.599 154.148H200.599L206.681 154.149L206.681 158.147Z" fill="white" stroke="black" mask="url(#path-32-inside-5_0_1122)"/>
<mask id="path-33-inside-6_0_1122" fill="white">
<path d="M221.007 155.156L217.918 155.155L216.449 143.255L221.007 143.255L221.007 155.156Z"/>
</mask>
<path d="M221.007 155.156L217.918 155.155L216.449 143.255L221.007 143.255L221.007 155.156Z" fill="white" stroke="black" mask="url(#path-33-inside-6_0_1122)"/>
<mask id="path-34-inside-7_0_1122" fill="white">
<path d="M221.794 158.147L211.837 158.146V158.02C211.837 157.512 211.937 157.008 212.132 156.539C212.326 156.069 212.612 155.642 212.972 155.283C213.332 154.923 213.759 154.638 214.229 154.443C214.699 154.249 215.203 154.148 215.712 154.148H215.713L221.794 154.149L221.794 158.147Z"/>
</mask>
<path d="M221.794 158.147L211.837 158.146V158.02C211.837 157.512 211.937 157.008 212.132 156.539C212.326 156.069 212.612 155.642 212.972 155.283C213.332 154.923 213.759 154.638 214.229 154.443C214.699 154.249 215.203 154.148 215.712 154.148H215.713L221.794 154.149L221.794 158.147Z" fill="white" stroke="black" mask="url(#path-34-inside-7_0_1122)"/>
<mask id="path-35-inside-8_0_1122" fill="white">
<path d="M206.215 148.942L201.843 148.767C201.545 148.754 201.264 148.624 201.06 148.406C200.857 148.188 200.747 147.899 200.756 147.601L201.987 107.24L202.068 107.211C209.729 104.442 216.067 104.651 221.445 107.85L221.505 107.886L222.243 147.196C222.245 147.346 222.218 147.496 222.162 147.636C222.107 147.775 222.024 147.903 221.918 148.01C221.813 148.118 221.687 148.203 221.548 148.261C221.409 148.32 221.26 148.35 221.109 148.35H217.423C217.16 148.349 216.906 148.258 216.703 148.091C216.501 147.924 216.362 147.693 216.311 147.436L211.289 121.915C211.272 121.827 211.224 121.748 211.153 121.692C211.083 121.636 210.995 121.607 210.905 121.61C210.815 121.614 210.729 121.649 210.663 121.71C210.597 121.771 210.554 121.853 210.544 121.943L207.385 147.946C207.351 148.221 207.217 148.473 207.01 148.656C206.803 148.839 206.536 148.941 206.26 148.942C206.245 148.942 206.23 148.942 206.215 148.942Z"/>
</mask>
<path d="M206.215 148.942L201.843 148.767C201.545 148.754 201.264 148.624 201.06 148.406C200.857 148.188 200.747 147.899 200.756 147.601L201.987 107.24L202.068 107.211C209.729 104.442 216.067 104.651 221.445 107.85L221.505 107.886L222.243 147.196C222.245 147.346 222.218 147.496 222.162 147.636C222.107 147.775 222.024 147.903 221.918 148.01C221.813 148.118 221.687 148.203 221.548 148.261C221.409 148.32 221.26 148.35 221.109 148.35H217.423C217.16 148.349 216.906 148.258 216.703 148.091C216.501 147.924 216.362 147.693 216.311 147.436L211.289 121.915C211.272 121.827 211.224 121.748 211.153 121.692C211.083 121.636 210.995 121.607 210.905 121.61C210.815 121.614 210.729 121.649 210.663 121.71C210.597 121.771 210.554 121.853 210.544 121.943L207.385 147.946C207.351 148.221 207.217 148.473 207.01 148.656C206.803 148.839 206.536 148.941 206.26 148.942C206.245 148.942 206.23 148.942 206.215 148.942Z" fill="white" stroke="black" mask="url(#path-35-inside-8_0_1122)"/>
<mask id="path-36-inside-9_0_1122" fill="white">
<path d="M210.468 71.8444C213.884 71.8444 216.654 69.0771 216.654 65.6634C216.654 62.2498 213.884 59.4824 210.468 59.4824C207.051 59.4824 204.281 62.2498 204.281 65.6634C204.281 69.0771 207.051 71.8444 210.468 71.8444Z"/>
</mask>
<path d="M210.468 71.8444C213.884 71.8444 216.654 69.0771 216.654 65.6634C216.654 62.2498 213.884 59.4824 210.468 59.4824C207.051 59.4824 204.281 62.2498 204.281 65.6634C204.281 69.0771 207.051 71.8444 210.468 71.8444Z" fill="white" stroke="black" mask="url(#path-36-inside-9_0_1122)"/>
<mask id="path-37-inside-10_0_1122" fill="white">
<path d="M181.383 88.3812C181.314 88.1612 181.314 87.9254 181.382 87.7053L182.023 85.6534C182.093 85.4314 182.23 85.2362 182.414 85.0943C182.599 84.9523 182.823 84.8704 183.055 84.8596L191.172 84.5011L204.34 77.757C204.798 77.6111 205.279 77.5566 205.757 77.5968C206.236 77.637 206.701 77.7709 207.128 77.991C207.554 78.2111 207.933 78.513 208.242 78.8795C208.552 79.246 208.786 79.6698 208.931 80.1268C209.077 80.5837 209.131 81.0649 209.09 81.5426C209.049 82.0204 208.914 82.4854 208.693 82.9111C208.472 83.3368 208.17 83.7149 207.802 84.0236C207.435 84.3323 207.011 84.5657 206.553 84.7104L198.483 89.3869C196.034 90.8066 193.152 91.2892 190.373 90.745L182.246 89.1541C182.09 89.1235 181.942 89.0603 181.812 88.9687C181.682 88.8771 181.572 88.7592 181.491 88.6226C181.445 88.5466 181.409 88.4656 181.383 88.3812Z"/>
</mask>
<path d="M181.383 88.3812C181.314 88.1612 181.314 87.9254 181.382 87.7053L182.023 85.6534C182.093 85.4314 182.23 85.2362 182.414 85.0943C182.599 84.9523 182.823 84.8704 183.055 84.8596L191.172 84.5011L204.34 77.757C204.798 77.6111 205.279 77.5566 205.757 77.5968C206.236 77.637 206.701 77.7709 207.128 77.991C207.554 78.2111 207.933 78.513 208.242 78.8795C208.552 79.246 208.786 79.6698 208.931 80.1268C209.077 80.5837 209.131 81.0649 209.09 81.5426C209.049 82.0204 208.914 82.4854 208.693 82.9111C208.472 83.3368 208.17 83.7149 207.802 84.0236C207.435 84.3323 207.011 84.5657 206.553 84.7104L198.483 89.3869C196.034 90.8066 193.152 91.2892 190.373 90.745L182.246 89.1541C182.09 89.1235 181.942 89.0603 181.812 88.9687C181.682 88.8771 181.572 88.7592 181.491 88.6226C181.445 88.5466 181.409 88.4656 181.383 88.3812Z" fill="white" stroke="black" mask="url(#path-37-inside-10_0_1122)"/>
<mask id="path-38-inside-11_0_1122" fill="white">
<path d="M226.703 103.615C226.486 103.693 226.25 103.703 226.027 103.644L223.948 103.092C223.723 103.032 223.522 102.904 223.372 102.725C223.222 102.547 223.131 102.327 223.11 102.096L222.406 94.009L215.101 81.152C214.935 80.7019 214.86 80.2236 214.88 79.7446C214.9 79.2655 215.014 78.7951 215.216 78.3601C215.418 77.9252 215.704 77.5343 216.057 77.2097C216.41 76.8852 216.824 76.6334 217.275 76.4688C217.726 76.3042 218.204 76.23 218.684 76.2504C219.163 76.2708 219.634 76.3854 220.069 76.5877C220.504 76.79 220.895 77.076 221.22 77.4293C221.544 77.7827 221.795 78.1964 221.96 78.6469L226.98 86.503C228.504 88.8871 229.11 91.7432 228.684 94.5399L227.439 102.72C227.415 102.877 227.358 103.028 227.272 103.162C227.186 103.295 227.073 103.41 226.94 103.497C226.866 103.546 226.786 103.585 226.703 103.615Z"/>
</mask>
<path d="M226.703 103.615C226.486 103.693 226.25 103.703 226.027 103.644L223.948 103.092C223.723 103.032 223.522 102.904 223.372 102.725C223.222 102.547 223.131 102.327 223.11 102.096L222.406 94.009L215.101 81.152C214.935 80.7019 214.86 80.2236 214.88 79.7446C214.9 79.2655 215.014 78.7951 215.216 78.3601C215.418 77.9252 215.704 77.5343 216.057 77.2097C216.41 76.8852 216.824 76.6334 217.275 76.4688C217.726 76.3042 218.204 76.23 218.684 76.2504C219.163 76.2708 219.634 76.3854 220.069 76.5877C220.504 76.79 220.895 77.076 221.22 77.4293C221.544 77.7827 221.795 78.1964 221.96 78.6469L226.98 86.503C228.504 88.8871 229.11 91.7432 228.684 94.5399L227.439 102.72C227.415 102.877 227.358 103.028 227.272 103.162C227.186 103.295 227.073 103.41 226.94 103.497C226.866 103.546 226.786 103.585 226.703 103.615Z" fill="white" stroke="black" mask="url(#path-38-inside-11_0_1122)"/>
<mask id="path-39-inside-12_0_1122" fill="white">
<path d="M203.701 76.6403C204.763 75.4761 206.074 74.565 207.536 73.9744C208.998 73.3838 210.574 73.1287 212.148 73.2279C212.252 73.2343 212.355 73.2415 212.457 73.2496H212.458C213.949 73.3674 215.399 73.8021 216.709 74.5245C218.019 75.247 219.16 76.2405 220.054 77.4388C220.964 78.6538 221.604 80.0488 221.931 81.5307C222.258 83.0125 222.264 84.547 221.95 86.0316C220.75 91.705 221.054 97.593 222.831 103.113L224.49 108.262C224.544 108.427 224.558 108.602 224.533 108.773C224.508 108.945 224.444 109.108 224.345 109.251C224.247 109.394 224.117 109.512 223.966 109.597C223.814 109.682 223.645 109.73 223.472 109.74L214.987 110.195L212.816 106.448V110.312L202.503 110.866C202.483 110.867 202.462 110.868 202.442 110.868C202.286 110.868 202.131 110.835 201.987 110.772C201.844 110.71 201.715 110.618 201.609 110.503C201.503 110.388 201.422 110.252 201.371 110.105C201.32 109.957 201.3 109.8 201.313 109.644L202.478 95.2036L201.016 85.3958C200.78 83.8287 200.898 82.2286 201.363 80.7132C201.827 79.1979 202.626 77.8061 203.701 76.6403Z"/>
</mask>
<path d="M203.701 76.6403C204.763 75.4761 206.074 74.565 207.536 73.9744C208.998 73.3838 210.574 73.1287 212.148 73.2279C212.252 73.2343 212.355 73.2415 212.457 73.2496H212.458C213.949 73.3674 215.399 73.8021 216.709 74.5245C218.019 75.247 219.16 76.2405 220.054 77.4388C220.964 78.6538 221.604 80.0488 221.931 81.5307C222.258 83.0125 222.264 84.547 221.95 86.0316C220.75 91.705 221.054 97.593 222.831 103.113L224.49 108.262C224.544 108.427 224.558 108.602 224.533 108.773C224.508 108.945 224.444 109.108 224.345 109.251C224.247 109.394 224.117 109.512 223.966 109.597C223.814 109.682 223.645 109.73 223.472 109.74L214.987 110.195L212.816 106.448V110.312L202.503 110.866C202.483 110.867 202.462 110.868 202.442 110.868C202.286 110.868 202.131 110.835 201.987 110.772C201.844 110.71 201.715 110.618 201.609 110.503C201.503 110.388 201.422 110.252 201.371 110.105C201.32 109.957 201.3 109.8 201.313 109.644L202.478 95.2036L201.016 85.3958C200.78 83.8287 200.898 82.2286 201.363 80.7132C201.827 79.1979 202.626 77.8061 203.701 76.6403Z" fill="white" stroke="black" mask="url(#path-39-inside-12_0_1122)"/>
<mask id="path-40-inside-13_0_1122" fill="white">
<path d="M214.767 71.5644C214.195 71.8936 211.93 72.112 211.769 71.4717L211.766 71.4576C211.653 70.9885 211.747 70.4986 211.779 70.0174C211.811 69.5361 211.764 69.0074 211.436 68.6535C210.824 67.9939 209.736 68.3436 208.852 68.1768C208.334 68.0613 207.876 67.7611 207.563 67.3325C207.251 66.9039 207.105 66.3762 207.154 65.8482C207.167 65.7482 207.186 65.648 207.209 65.5479C207.264 65.2943 207.26 65.0314 207.196 64.7797C207.133 64.5281 207.012 64.2946 206.842 64.0975C206.673 63.9005 206.461 63.7452 206.222 63.644C205.983 63.5428 205.723 63.4984 205.464 63.5142C204.57 63.5653 203.605 63.8358 202.866 63.1744C202.294 62.663 202.155 61.3317 202.406 60.6072C202.828 59.3896 205.533 58.7521 206.714 58.4017C208.174 57.9801 209.71 57.889 211.211 58.1349C212.711 58.3808 214.137 58.9577 215.386 59.8235C216.132 60.3487 216.829 61.0088 217.147 61.8634C217.465 62.718 217.311 63.7962 216.594 64.3603C217.15 64.9481 217.541 65.6715 217.729 66.458C217.917 67.2445 217.894 68.0664 217.664 68.8415C217.31 69.9814 215.62 71.0742 214.767 71.5644Z"/>
</mask>
<path d="M214.767 71.5644C214.195 71.8936 211.93 72.112 211.769 71.4717L211.766 71.4576C211.653 70.9885 211.747 70.4986 211.779 70.0174C211.811 69.5361 211.764 69.0074 211.436 68.6535C210.824 67.9939 209.736 68.3436 208.852 68.1768C208.334 68.0613 207.876 67.7611 207.563 67.3325C207.251 66.9039 207.105 66.3762 207.154 65.8482C207.167 65.7482 207.186 65.648 207.209 65.5479C207.264 65.2943 207.26 65.0314 207.196 64.7797C207.133 64.5281 207.012 64.2946 206.842 64.0975C206.673 63.9005 206.461 63.7452 206.222 63.644C205.983 63.5428 205.723 63.4984 205.464 63.5142C204.57 63.5653 203.605 63.8358 202.866 63.1744C202.294 62.663 202.155 61.3317 202.406 60.6072C202.828 59.3896 205.533 58.7521 206.714 58.4017C208.174 57.9801 209.71 57.889 211.211 58.1349C212.711 58.3808 214.137 58.9577 215.386 59.8235C216.132 60.3487 216.829 61.0088 217.147 61.8634C217.465 62.718 217.311 63.7962 216.594 64.3603C217.15 64.9481 217.541 65.6715 217.729 66.458C217.917 67.2445 217.894 68.0664 217.664 68.8415C217.31 69.9814 215.62 71.0742 214.767 71.5644Z" fill="#7247FF" stroke="black" mask="url(#path-40-inside-13_0_1122)"/>
</g>
<defs>
<linearGradient id="paint0_linear_0_1122" x1="40.8995" y1="103.894" x2="62.8343" y2="103.98" gradientUnits="userSpaceOnUse">
<stop stop-color="#4614E8"/>
<stop offset="1" stop-color="#BCA7FF"/>
</linearGradient>
<linearGradient id="paint1_linear_0_1122" x1="162.355" y1="64.5092" x2="179.678" y2="68.5037" gradientUnits="userSpaceOnUse">
<stop stop-color="#4614E8"/>
<stop offset="1" stop-color="#BCA7FF"/>
</linearGradient>
<linearGradient id="paint2_linear_0_1122" x1="24.6737" y1="38.1601" x2="34.1548" y2="44.7401" gradientUnits="userSpaceOnUse">
<stop stop-color="#4614E8"/>
<stop offset="1" stop-color="#BCA7FF"/>
</linearGradient>
<linearGradient id="paint3_linear_0_1122" x1="37.2217" y1="29.1941" x2="49.4965" y2="33.8592" gradientUnits="userSpaceOnUse">
<stop stop-color="#4614E8"/>
<stop offset="1" stop-color="#BCA7FF"/>
</linearGradient>
<linearGradient id="paint4_linear_0_1122" x1="49.7697" y1="38.1601" x2="59.2509" y2="44.7401" gradientUnits="userSpaceOnUse">
<stop stop-color="#4614E8"/>
<stop offset="1" stop-color="#BCA7FF"/>
</linearGradient>
<linearGradient id="paint5_linear_0_1122" x1="62.3178" y1="25.6544" x2="75.0423" y2="29.7577" gradientUnits="userSpaceOnUse">
<stop stop-color="#4614E8"/>
<stop offset="1" stop-color="#BCA7FF"/>
</linearGradient>
<linearGradient id="paint6_linear_0_1122" x1="74.8659" y1="19.2841" x2="88.0662" y2="22.6286" gradientUnits="userSpaceOnUse">
<stop stop-color="#4614E8"/>
<stop offset="1" stop-color="#BCA7FF"/>
</linearGradient>
<clipPath id="clip0_0_1122">
<rect width="231" height="161" fill="white"/>
</clipPath>
</defs>
</svg>
